<?xml version="1.0" encoding="iso-8859-1"?>
<!-- Uploaded to: SVG Repo, www.svgrepo.com, Generator: SVG Repo Mixer Tools -->
<svg fill="#000000" height="800px" width="800px" version="1.1" id="Layer_1" xmlns="http://www.w3.org/2000/svg" xmlns:xlink="http://www.w3.org/1999/xlink" 
	 viewBox="0 0 259.8 259.8" xml:space="preserve">
<g>
	<g>
		<g>
			<path d="M212.66,223.324c-0.204-5.216-4.584-33.872-7.292-37.48c1.12-0.292,2.092-1.08,2.528-2.244
				c0.708-1.892-0.256-4.012-2.152-4.72l-41.2-15.392c-0.916-0.34-1.916-0.308-2.804,0.1c-0.892,0.408-1.572,1.136-1.916,2.052
				c-0.26,0.696-0.232,1.432-0.056,2.14c-0.524-0.172-1.068-0.348-1.564-0.512c-0.956-0.312-1.74-0.66-2.472-1.012l-4.02-5.492
				l-0.284-3.644c2.316-1.44,4.572-3.036,6.68-4.872c4.428-3.848,7.624-8.572,9.496-14.04l0.772-2.24
				c0.832-2.396,1.66-4.796,2.412-7.208c0.72-2.324,1.496-3.764,3.72-5.192c2.896-1.86,4.396-5.12,5.716-7.996l0.288-0.628
				c0.748-1.608,6.48-20.908-0.004-27.128c-0.924-10.904-2.088-20.76-6.184-30.52c-0.62-1.476-1.344-2.844-2.108-4.168V0H87.844
				v54.276c-1.188,2.344-2.244,4.804-2.984,7.536c-1.696,6.264-2.552,12.74-3.376,19c-0.364,2.756-0.728,5.512-1.164,8.256
				c-0.052,0.324-0.064,0.664-0.068,1c-0.004,0.16-0.008,0.38,0,0.392c-3.948,8.624-2.292,17.076-0.156,24.204
				c1.124,3.744,3.136,8.328,8.56,10.476c0.02,0.02,0.196,0.22,0.456,0.96c1.332,3.812,2.644,7.632,3.828,11.476
				c2.352,7.632,7.612,14.032,15.64,19.072v3.812l-4.36,5.956c-1.28,0.412-2.652,0.86-4.172,1.356c0.172-0.708,0.2-1.44-0.06-2.132
				c-0.34-0.916-1.02-1.644-1.916-2.052c-0.888-0.408-1.888-0.44-2.804-0.1l-41.2,15.392c-1.896,0.708-2.86,2.828-2.152,4.72
				c0.432,1.16,1.4,1.948,2.516,2.244c-2.704,3.604-7.088,32.268-7.292,37.484c-0.272,6.968,1.948,33.308,2.044,34.424l0.152,1.776
				l1.78,0.056C56.4,259.748,77,259.8,101.74,259.8c41.856,0,95.556-0.156,106.904-0.216l1.828-0.008l0.156-1.824
				C210.716,256.628,212.936,230.288,212.66,223.324z M162.484,166.628c0.076-0.204,0.232-0.368,0.436-0.46
				c0.112-0.052,0.232-0.08,0.348-0.08c0.096,0,0.192,0.016,0.288,0.052l41.2,15.392c0.42,0.16,0.648,0.648,0.488,1.072
				c-0.156,0.42-0.652,0.652-1.072,0.488l-41.2-15.392c-0.204-0.076-0.368-0.232-0.464-0.432
				C162.416,167.064,162.408,166.84,162.484,166.628z M154.456,169.312l1.648,1.244c-1,1.972-3.472,6.708-8.012,14.592
				c-4.532,7.876-11.36,9.188-14.212,9.38v-3.292c0-3.908,0.688-5.416,2.636-7.696c3.576-4.196,10.796-15.716,13.568-20.204
				L154.456,169.312z M170.644,58.844c3.972,9.468,5.048,19.252,5.956,30.14l0.012,0.164c-5.364,0.02-9.164-7.104-13.408-15.336
				c-3.512-6.816-7.388-14.156-12.936-18.3h18.728C169.588,56.576,170.152,57.672,170.644,58.844z M91.844,4h76.376v26.316H91.844V4
				z M91.844,32.352h76.376v7.292H91.844V32.352z M91.844,41.684h76.376v9.832H91.844V41.684z M84.84,85.62
				c0.2-1.432,0.416-2.856,0.604-4.288c0.812-6.128,1.648-12.468,3.272-18.476c0.724-2.668,1.748-5.076,2.936-7.34h43.992
				c-5.016,3.672-10.18,7.744-15.3,11.804c-13.852,10.984-28.252,22.32-35.568,21.852C84.78,88.156,84.796,86.956,84.84,85.62z
				 M96.76,136.4c-1.2-3.896-2.524-7.76-3.876-11.62c-0.384-1.104-1.068-2.636-2.52-3.224c-4.024-1.628-5.472-4.828-6.436-8.044
				c-1.924-6.416-3.436-13.976-0.04-21.388c0.04-0.088,0.04-0.172,0.072-0.26C84.344,91.912,84.712,92,85.12,92
				c8.652,0,22.448-10.936,36.988-22.464c6.212-4.924,12.484-9.864,18.404-14.024h3.964c7.276,2.284,11.812,11.06,16.212,19.596
				c4.484,8.696,8.744,16.96,15.748,16.96c0.66,0,1.36-0.116,2.072-0.268c2.56,5.004-0.44,18.932-1.612,21.46l-0.296,0.64
				c-1.144,2.492-2.332,5.072-4.244,6.3c-3.204,2.06-4.468,4.436-5.38,7.372c-0.74,2.372-1.556,4.732-2.372,7.084l-0.78,2.256
				c-1.664,4.86-4.388,8.888-8.332,12.316c-6.992,6.068-15.756,9.66-23.412,12.372c-0.992,0.352-2.812,0.26-3.98-0.196
				c-4.676-1.828-9.648-3.86-14.3-6.34C104.708,150.212,99.136,144.108,96.76,136.4z M103.988,170.536l1.296-0.904l4.704-6.304
				c2.776,4.492,9.996,16.008,13.568,20.204c1.948,2.288,2.636,3.796,2.636,7.7v3.284c-2.848-0.208-9.712-1.556-14.212-9.372
				c-4.52-7.856-6.992-12.584-7.996-14.568L103.988,170.536z M55.056,181.532l41.2-15.392c0.092-0.036,0.188-0.052,0.288-0.052
				c0.116,0,0.236,0.024,0.348,0.08c0.204,0.092,0.356,0.256,0.432,0.464c0.08,0.208,0.068,0.432-0.024,0.636
				c-0.092,0.204-0.256,0.356-0.464,0.432l-41.2,15.396c-0.428,0.156-0.916-0.064-1.072-0.488S54.636,181.692,55.056,181.532z
				 M53.016,255.62c-0.504-6.168-2.108-26.436-1.884-32.144c0.296-7.512,4.948-32.868,6.408-35.164
				c2.164-2.464,26.612-11.28,43.908-16.476c1.012,2,3.468,6.708,8.076,14.72c5.816,10.1,15.008,10.832,17.544,10.832
				c0.264,0,0.428-0.008,0.536-0.012c-0.276,4.42-0.264,17.596,0.86,58.4C95.508,255.816,62.976,255.8,53.016,255.62z
				 M129.028,194.592v-3.356c0-4.796-1.068-6.9-3.316-9.536c-4.24-4.976-14.312-21.48-14.412-21.644l-0.136-0.224l1.064-1.088
				c4.744,2.504,9.724,4.556,14.416,6.388c1.164,0.452,2.54,0.684,3.864,0.684c1.052,0,2.068-0.148,2.912-0.444
				c4.668-1.652,9.732-3.648,14.636-6.292l0.652,1.072c-0.656,1.072-10.236,16.712-14.348,21.544
				c-2.248,2.636-3.316,4.736-3.316,9.536v3.32h-1.928L129.028,194.592z M206.784,255.588c-11.016,0.048-43.152,0.144-75.488,0.184
				c-0.584-21.188-1.264-52.2-0.956-58.388h2.56c0.04,0,0.06,0,0.104,0c0.012,0,0.036,0,0.048,0h1.632v-0.104
				c3.688-0.372,10.96-2.2,15.864-10.728c5.008-8.7,7.456-13.468,8.288-15.136c23.264,7.444,41.236,14.404,43.364,16.82
				c1.516,2.372,6.168,27.728,6.46,35.236C208.888,229.176,207.292,249.384,206.784,255.588z"/>
			<path d="M169.936,205.532c-10.236,0-18.56,8.328-18.56,18.56s8.328,18.56,18.56,18.56s18.56-8.328,18.56-18.56
				S180.168,205.532,169.936,205.532z M154.904,217.816c0.44-0.44,1.048-0.712,1.72-0.712c1.336,0,2.428,1.088,2.428,2.428
				c0,1.336-1.088,2.428-2.428,2.428c-1.216,0-2.184-0.912-2.36-2.08C154.452,219.18,154.628,218.476,154.904,217.816z
				 M159.856,233.148v3.64c-3.756-2.988-6.212-7.54-6.212-12.696c0-0.584,0.112-1.132,0.172-1.7c0.572,0.56,1.328,0.884,2.152,1.024
				c0.012,0.028,0.028,0.056,0.036,0.076l0.908,2.412c0.812,2.148,1.624,4.296,2.4,6.46c0.128,0.356,0.344,0.556,0.548,0.776
				C159.86,233.144,159.856,233.144,159.856,233.148z M169.936,240.384c-3.064,0-5.9-0.904-8.348-2.376h16.696
				C175.836,239.484,173,240.384,169.936,240.384z M178.428,236.42h-16.992v-2.584h0.004h0.008h16.98V236.42z M178.424,232.248
				c-5.66-0.032-11.328-0.032-16.988,0c-0.424-0.032-0.5-0.048-0.64-0.424c-0.78-2.172-1.592-4.328-2.408-6.484l-0.752-2
				c0.56-0.152,1.064-0.396,1.496-0.752c0.46,0.496,0.92,0.992,1.38,1.492l1.032,1.12c0.104,0.112,0.22,0.212,0.368,0.332
				l0.168,0.144c0.2,0.172,0.476,0.232,0.74,0.16c0.256-0.076,0.46-0.276,0.536-0.532l0.076-0.248
				c0.06-0.184,0.104-0.336,0.144-0.488l0.484-1.996c0.3-1.252,0.608-2.504,0.924-3.752c0.576-0.004,1.124-0.116,1.624-0.328
				c0.492,1.26,0.984,2.52,1.472,3.784l0.8,2.068c0.048,0.116,0.104,0.232,0.252,0.504c0.124,0.236,0.4,0.344,0.668,0.372
				c0.268,0.016,0.572-0.136,0.74-0.34c0.052-0.064,0.188-0.276,0.22-0.352l0.808-2.08c0.54-1.396,1.084-2.792,1.632-4.184
				c0.38,0.116,0.76,0.24,1.176,0.24c0.092,0,0.172-0.048,0.264-0.052c0.3,1.212,0.596,2.424,0.888,3.636l0.656,2.696
				c0.048,0.192,0.128,0.344,0.288,0.656c0.112,0.24,0.336,0.408,0.596,0.448c0.26,0.032,0.524-0.052,0.704-0.248l2.876-3.092
				c0.416,0.36,0.896,0.612,1.432,0.78c-0.472,1.288-0.956,2.568-1.436,3.852c-0.592,1.568-1.188,3.156-1.768,4.744
				C178.76,232.24,178.8,232.244,178.424,232.248z M162.304,214.572c0-1.468,1.196-2.664,2.664-2.664
				c1.468,0,2.664,1.196,2.664,2.664c0,1.468-1.196,2.664-2.664,2.664C163.5,217.236,162.304,216.04,162.304,214.572z
				 M171.804,214.332c0-1.416,1.156-2.572,2.572-2.572c1.416,0,2.572,1.156,2.572,2.572c0,1.42-1.156,2.576-2.572,2.576
				C172.96,216.908,171.804,215.752,171.804,214.332z M186.228,224.088c-0.004,5.164-2.46,9.716-6.212,12.7v-3.644
				c0-0.036-0.04-0.064-0.048-0.104c0.14-0.184,0.308-0.316,0.404-0.576c0.58-1.584,1.172-3.168,1.764-4.748
				c0.516-1.376,1.032-2.752,1.54-4.132c0.032-0.08,0.072-0.104,0.108-0.148c0.872-0.124,1.672-0.46,2.272-1.048
				C186.116,222.956,186.228,223.504,186.228,224.088z M185.604,219.88c-0.176,1.168-1.144,2.08-2.356,2.08
				c-1.34,0-2.428-1.088-2.428-2.428c0-1.34,1.088-2.428,2.428-2.428c0.668,0,1.276,0.272,1.716,0.712
				C185.24,218.476,185.416,219.18,185.604,219.88z M183.248,215.52c-2.216,0-4.016,1.8-4.016,4.016
				c0,0.628,0.176,1.204,0.432,1.736c-0.016,0.016-0.028,0.028-0.04,0.044l-2.096,2.248l-0.452-1.86
				c-0.288-1.188-0.58-2.38-0.892-3.664c1.38-0.676,2.352-2.064,2.352-3.704c0-2.292-1.864-4.16-4.16-4.16
				c-2.296,0-4.16,1.864-4.16,4.16c0,1.3,0.632,2.412,1.568,3.176c-0.568,1.448-1.132,2.904-1.696,4.356l-0.228,0.596l-0.296-0.76
				c-0.532-1.376-1.068-2.752-1.616-4.108c0.78-0.772,1.264-1.836,1.264-3.016c0-2.344-1.904-4.248-4.248-4.248
				s-4.248,1.904-4.248,4.248c0,1.8,1.132,3.32,2.716,3.936c-0.312,1.228-0.612,2.456-0.908,3.688l-0.328,1.356l-0.508-0.552
				c-0.508-0.548-1.02-1.1-1.544-1.644c0.292-0.556,0.496-1.156,0.496-1.828c0-2.216-1.8-4.016-4.012-4.016
				c-0.192,0-0.356,0.084-0.544,0.108c2.864-4.676,7.976-7.828,13.852-7.828c5.876,0,10.988,3.152,13.852,7.828
				C183.604,215.6,183.44,215.52,183.248,215.52z"/>
		</g>
	</g>
</g>
</svg>