<!DOCTYPE svg PUBLIC "-//W3C//DTD SVG 1.1//EN" "http://www.w3.org/Graphics/SVG/1.1/DTD/svg11.dtd">
<!-- Uploaded to: SVG Repo, www.svgrepo.com, Transformed by: SVG Repo Mixer Tools -->
<svg fill="#000000" height="800px" width="800px" version="1.1" id="Layer_1" xmlns="http://www.w3.org/2000/svg" xmlns:xlink="http://www.w3.org/1999/xlink" viewBox="0 0 216.28 216.28" xml:space="preserve">
<g id="SVGRepo_bgCarrier" stroke-width="0"/>
<g id="SVGRepo_tracerCarrier" stroke-linecap="round" stroke-linejoin="round"/>
<g id="SVGRepo_iconCarrier"> <g> <g> <path d="M216.168,174.022l-0.016-0.228c-0.992-8.308-8.412-14.572-17.248-14.572H115v-5.908h86.52v-2 c0-44.268-30.968-81.408-72.372-90.972c0.008-0.14,0.056-0.272,0.056-0.416c0-5.944-4.84-10.784-10.784-10.784h-2.856V41.15h23.64 v-2c0-8.62-7.012-15.632-15.632-15.632h-30.88c-8.62,0-15.632,7.012-15.632,15.632v2h23.64v7.992h-2.86 c-5.944,0-10.78,4.836-10.78,10.784c0,0.144,0.048,0.272,0.052,0.416c-41.396,9.568-72.36,46.712-72.36,90.976v2h86.52v5.908 H17.364c-8.836,0-16.252,6.264-17.248,14.584C0.04,174.418,0,175.034,0,175.658l0.1,17.104h216.18L216.168,174.022z M157.836,149.318c1.284-11.56,3.488-59.088-42.296-85.04c17.76,6.416,67.124,29.264,68.56,85.04H157.836z M197.496,149.318 h-12.28c-1.556-60.68-59.024-82.86-72.732-87.276C159.1,64.286,196.46,102.402,197.496,149.318z M81.236,37.158 c0.948-5.464,5.724-9.632,11.46-9.632h30.88c5.736,0,10.512,4.168,11.46,9.632H81.236z M113.3,41.158v7.992h-10.332v-7.992H113.3z M97.844,51.986h20.58c4.312,0,7.816,3.456,7.928,7.744c-5.896-1.172-11.984-1.796-18.216-1.796s-12.32,0.628-18.212,1.796 C90.028,55.442,93.532,51.986,97.844,51.986z M101.268,149.318H18.772c1.068-48.368,40.744-87.388,89.36-87.388 c0.156,0,0.308,0.012,0.46,0.012l0.564,0.272c51.44,24.868,48.848,75.6,47.536,87.104H115H101.268z M113.868,153.318v5.908 h-11.464v-5.908H113.868z M17.364,163.226h181.54c6.52,0,11.984,4.364,13.108,10.252H4.264 C5.392,167.586,10.848,163.226,17.364,163.226z M4,175.658c0-0.352,0.032-0.7,0.064-1.048h208.008v5.388H4.032L4,175.658z M4.1,188.762l-0.06-7.632h208.168l0.048,7.632H4.1z"/> </g> </g> </g>
</svg>